<?xml version="1.0" encoding="utf-8"?>
<svg viewBox="-130.494 -92.515 630.494 592.515" xmlns="http://www.w3.org/2000/svg">
  <path d="M -74.049 402.234 C -89.716 386.567 -97.549 367.734 -97.549 345.734 L -97.549 205.734 C -97.549 187.734 -93.049 171.234 -84.049 156.234 C -75.049 141.234 -62.882 129.067 -47.549 119.734 L -47.549 65.734 C -47.549 32.401 -35.882 4.067 -12.549 -19.266 C 10.784 -42.599 39.118 -54.266 72.451 -54.266 L 292.451 -54.266 C 325.784 -54.266 354.118 -42.599 377.451 -19.266 C 400.784 4.067 412.451 32.401 412.451 65.734 L 412.451 119.734 C 427.784 129.067 439.951 141.234 448.951 156.234 C 457.951 171.234 462.451 187.734 462.451 205.734 L 462.451 345.734 C 462.451 367.734 454.618 386.567 438.951 402.234 C 423.284 417.901 404.451 425.734 382.451 425.734 L -17.549 425.734 C -39.549 425.734 -58.382 417.901 -74.049 402.234 Z M 382.451 365.734 C 388.451 365.734 393.284 363.901 396.951 360.234 C 400.618 356.567 402.451 351.734 402.451 345.734 L 402.451 205.734 C 402.451 194.401 398.618 184.901 390.951 177.234 C 383.284 169.567 373.784 165.734 362.451 165.734 C 351.118 165.734 341.618 169.567 333.951 177.234 C 326.284 184.901 322.451 194.401 322.451 205.734 L 322.451 285.734 L 42.451 285.734 L 42.451 205.734 C 42.451 194.401 38.618 184.901 30.951 177.234 C 23.284 169.567 13.784 165.734 2.451 165.734 C -8.882 165.734 -18.382 169.567 -26.049 177.234 C -33.716 184.901 -37.549 194.401 -37.549 205.734 L -37.549 345.734 C -37.549 351.734 -35.716 356.567 -32.049 360.234 C -28.382 363.901 -23.549 365.734 -17.549 365.734 L 382.451 365.734 Z M 262.451 225.734 L 262.451 205.734 C 262.451 179.734 271.118 157.401 288.451 138.734 C 305.784 120.067 327.118 109.734 352.451 107.734 L 352.451 65.734 C 352.451 48.401 346.784 34.067 335.451 22.734 C 324.118 11.401 309.784 5.734 292.451 5.734 L 72.451 5.734 C 55.118 5.734 40.784 11.401 29.451 22.734 C 18.118 34.067 12.451 48.401 12.451 65.734 L 12.451 107.734 C 37.784 109.734 59.118 120.067 76.451 138.734 C 93.784 157.401 102.451 179.734 102.451 205.734 L 102.451 225.734 L 262.451 225.734 Z" fill="#cccccc"/>
</svg>