<?xml version="1.0" encoding="UTF-8" standalone="no"?>
<!DOCTYPE svg PUBLIC "-//W3C//DTD SVG 1.1//EN" "http://www.w3.org/Graphics/SVG/1.1/DTD/svg11.dtd">
<svg xmlns="http://www.w3.org/2000/svg" version="1.1" viewBox="0.00 0.00 160.00 72.00" width="160.00" height="72.00">
<path fill="#0088a9" d="
  M 19.81 50.09
  Q 20.26 50.24 20.74 50.22
  Q 23.90 50.09 24.22 46.94
  Q 24.66 42.67 24.47 38.48
  Q 24.47 38.37 24.58 38.35
  Q 29.16 37.82 31.77 37.94
  Q 31.90 37.95 31.91 38.08
  C 32.46 45.28 32.24 52.57 25.81 56.65
  C 23.48 58.14 21.31 57.83 18.76 58.48
  Q 17.28 58.86 15.77 58.24
  Q 9.94 55.84 9.98 48.75
  Q 10.07 34.43 9.94 20.30
  Q 9.92 17.65 10.76 15.53
  C 12.15 12.07 15.62 9.77 19.34 9.97
  C 21.50 10.08 23.75 9.69 25.80 10.47
  Q 31.46 12.65 31.95 19.42
  Q 32.11 21.67 32.04 24.19
  Q 32.01 25.40 30.80 25.46
  L 25.80 25.70
  Q 24.59 25.76 24.54 24.55
  L 24.38 19.74
  Q 24.27 16.71 21.24 16.75
  L 20.55 16.76
  Q 17.75 16.79 17.76 19.58
  L 17.76 47.25
  Q 17.76 49.40 19.81 50.09
  Z"
/>
<path fill="#0088a9" d="
  M 43.79 11.13
  L 43.80 53.56
  A 0.33 0.33 0.0 0 1 43.52 53.89
  L 36.37 54.90
  A 0.33 0.33 0.0 0 1 35.99 54.57
  L 35.99 11.11
  A 0.33 0.33 0.0 0 1 36.32 10.78
  L 43.46 10.80
  A 0.33 0.33 0.0 0 1 43.79 11.13
  Z"
/>
<path fill="#0088a9" d="
  M 55.76 24.63
  Q 55.29 23.13 55.30 24.70
  L 55.36 52.52
  Q 55.36 52.91 54.97 52.94
  L 48.51 53.59
  Q 48.12 53.63 48.12 53.23
  L 48.12 11.45
  Q 48.12 10.77 48.80 10.77
  L 57.31 10.75
  Q 58.02 10.75 58.23 11.43
  L 64.51 32.20
  Q 64.55 32.31 64.66 32.27
  Q 64.80 32.22 64.88 32.12
  Q 64.98 32.00 64.98 31.83
  Q 65.03 21.10 64.97 11.02
  A 0.28 0.28 0.0 0 1 65.25 10.74
  L 71.75 10.75
  A 0.26 0.25 1.2 0 1 72.00 11.00
  L 71.99 51.61
  Q 71.99 52.22 71.39 52.25
  L 64.95 52.61
  A 1.30 1.30 0.0 0 1 63.62 51.66
  Q 59.75 37.47 55.76 24.63
  Z"
/>
<path fill="#0088a9" d="
  M 84.77 27.09
  L 93.72 27.16
  A 0.50 0.50 0.0 0 1 94.21 27.65
  L 94.23 33.20
  A 0.50 0.50 0.0 0 1 93.72 33.70
  L 84.79 33.49
  A 0.50 0.50 0.0 0 0 84.28 33.99
  L 84.26 44.67
  A 0.50 0.50 0.0 0 0 84.75 45.17
  L 96.47 45.44
  A 0.50 0.50 0.0 0 1 96.96 45.93
  L 97.02 52.06
  A 0.50 0.50 0.0 0 1 96.51 52.57
  L 76.97 52.03
  A 0.50 0.50 0.0 0 1 76.48 51.53
  L 76.50 11.25
  A 0.50 0.50 0.0 0 1 77.00 10.75
  L 96.52 10.74
  A 0.50 0.50 0.0 0 1 97.03 11.25
  L 96.97 16.42
  A 0.50 0.50 0.0 0 1 96.47 16.92
  L 84.77 16.88
  A 0.50 0.50 0.0 0 0 84.27 17.38
  L 84.27 26.59
  A 0.50 0.50 0.0 0 0 84.77 27.09
  Z"
/>
<path fill="#0088a9" d="
  M 118.55 10.77
  L 125.18 10.83
  A 0.36 0.36 0.0 0 1 125.52 11.31
  L 118.18 30.71
  A 0.36 0.36 0.0 0 0 118.17 30.95
  L 126.23 54.60
  A 0.36 0.36 0.0 0 1 125.85 55.08
  L 118.20 54.22
  A 0.36 0.36 0.0 0 1 117.90 53.97
  L 112.61 37.29
  A 0.36 0.36 0.0 0 0 111.93 37.28
  L 106.66 52.83
  A 0.36 0.36 0.0 0 1 106.30 53.07
  L 99.47 52.80
  A 0.36 0.36 0.0 0 1 99.14 52.32
  L 107.19 30.50
  A 0.36 0.36 0.0 0 0 107.19 30.24
  L 99.82 11.26
  A 0.36 0.36 0.0 0 1 100.15 10.77
  L 107.57 10.75
  A 0.36 0.36 0.0 0 1 107.91 10.99
  L 112.67 24.23
  A 0.36 0.36 0.0 0 0 113.34 24.23
  L 118.21 11.01
  A 0.36 0.36 0.0 0 1 118.55 10.77
  Z"
/>
<path fill="#0088a9" d="
  M 142.63 18.07
  L 142.65 57.12
  A 0.33 0.33 0.0 0 1 142.27 57.44
  L 135.13 56.40
  A 0.33 0.33 0.0 0 1 134.85 56.07
  L 134.93 17.89
  A 0.33 0.33 0.0 0 0 134.61 17.56
  L 127.35 17.31
  A 0.33 0.33 0.0 0 1 127.04 16.99
  L 126.96 11.17
  A 0.33 0.33 0.0 0 1 127.30 10.83
  L 149.69 10.98
  A 0.33 0.33 0.0 0 1 150.02 11.31
  L 149.97 17.55
  A 0.33 0.33 0.0 0 1 149.64 17.87
  L 142.97 17.74
  A 0.33 0.33 0.0 0 0 142.63 18.07
  Z"
/>
</svg>
